<?xml version="1.0" encoding="UTF-8"?>
<svg id="Calque_2" data-name="Calque 2" xmlns="http://www.w3.org/2000/svg" viewBox="0 0 50 46">
  <defs>
    <style>
      .cls-1 {
        fill: none;
        stroke: #333;
        stroke-linecap: round;
        stroke-linejoin: round;
        stroke-width: 2px;
      }
    </style>
  </defs>
  <g id="ARTWORK">
    <g>
      <line class="cls-1" x1="10" y1="6" x2="16" y2="12"/>
      <path class="cls-1" d="M14.29,2.93c-1.94-2.39-5.56-2.59-7.76-.43-2.13,2.1-2.01,5.53.26,7.48l42.22,35.03L14.29,2.93Z"/>
      <g>
        <path class="cls-1" d="M31.2,23h10.8c3.87,0,7-3.13,7-7h0c0-3.87-3.13-7-7-7h-22"/>
        <path class="cls-1" d="M20.46,37H8c-3.87,0-7-3.13-7-7h0c0-3.87,3.13-7,7-7h14"/>
      </g>
      <line class="cls-1" x1="13" y1="9" x2="1" y2="9"/>
    </g>
  </g>
</svg>