<?xml version="1.0" encoding="UTF-8"?>
<svg id="Calque_2" data-name="Calque 2" xmlns="http://www.w3.org/2000/svg" viewBox="0 0 50 50">
  <defs>
    <style>
      .cls-1 {
        stroke: #1d1d1b;
      }

      .cls-1, .cls-2, .cls-3 {
        stroke-linecap: round;
        stroke-linejoin: round;
        stroke-width: 2px;
      }

      .cls-1, .cls-3 {
        fill: #6c8988;
      }

      .cls-2 {
        fill: #fff;
      }

      .cls-2, .cls-3 {
        stroke: #333;
      }
    </style>
  </defs>
  <g id="Calque_2-2" data-name="Calque 2">
    <g>
      <path class="cls-3" d="M41.97,8.03c-9.37-9.37-24.57-9.37-33.94,0-9.37,9.37-9.37,24.57,0,33.94,9.37,9.37,24.57,9.37,33.94,0,9.37-9.37,9.38-24.57,0-33.94Z"/>
      <path class="cls-1" d="M37.73,12.27c-7.03-7.03-18.43-7.03-25.46,0-7.03,7.03-7.03,18.43,0,25.46,7.03,7.03,18.42,7.03,25.45,0,7.03-7.03,7.03-18.43,0-25.45Z"/>
      <path class="cls-2" d="M27.12,19.12c-1.17,1.17-3.07,1.17-4.24,0-1.17-1.17-1.17-3.07,0-4.24,1.17-1.17,3.07-1.17,4.24,0,1.17,1.17,1.17,3.07,0,4.24Z"/>
      <path class="cls-2" d="M35.12,27.12c-1.17,1.17-3.07,1.17-4.24,0-1.17-1.17-1.17-3.07,0-4.24,1.17-1.17,3.07-1.17,4.24,0,1.17,1.17,1.17,3.07,0,4.24Z"/>
      <path class="cls-2" d="M27.12,35.12c-1.17,1.17-3.07,1.17-4.24,0-1.17-1.17-1.17-3.07,0-4.24,1.17-1.17,3.07-1.17,4.24,0,1.17,1.17,1.17,3.07,0,4.24Z"/>
      <path class="cls-2" d="M19.12,27.12c-1.17,1.17-3.07,1.17-4.24,0-1.17-1.17-1.17-3.07,0-4.24,1.17-1.17,3.07-1.17,4.24,0,1.17,1.17,1.17,3.07,0,4.24Z"/>
    </g>
  </g>
</svg>