<?xml version="1.0" encoding="UTF-8"?>
<svg id="Calque_2" xmlns="http://www.w3.org/2000/svg" viewBox="0 0 174.97 174.97">
  <defs>
    <style>
      .cls-1, .cls-2 {
        fill: none;
      }

      .cls-1, .cls-2, .cls-3, .cls-4 {
        stroke: #fff;
      }

      .cls-1, .cls-3 {
        stroke-miterlimit: 10;
      }

      .cls-2, .cls-4 {
        stroke-linecap: round;
        stroke-linejoin: round;
        stroke-width: 2px;
      }

      .cls-3 {
        fill: #51816a;
      }

      .cls-4 {
        fill: #1d1d1b;
      }
    </style>
  </defs>
  <g id="travail">
    <circle class="cls-3" cx="91.47" cy="86.39" r="82.96"/>
    <g>
      <path class="cls-2" d="M56.25,41.97s-13.46,31.54-8.87,34.43l11.41-19.89,9.02-12.85s3.98-5.15,3.57,4.57c-.4,9.4-8.45,19.41-12.39,17.74s2.48-6.78,2.48-6.78"/>
      <path class="cls-2" d="M77.03,59.19c-.85-.21-7.2,2.65-5.62,5.09,1.3,2.01,7.89-4.52,5.62-5.09Z"/>
      <path class="cls-2" d="M71.05,63.4s-1.75,7.21,3.27,6.09c4.77-1.06,15.17-11.3,17.09-23.74,1.61-10.39-13.75,36.79-7.08,30.65,9.72-8.95,11.21-18.95,10.43-14.02-.09.6-2.37,10.76,1.52,7.63,3.78-3.04,12.43-12.1,15-24,2.45-11.35-13.17,34.45-7.39,30.39,1.32-.93,5.91-6.09,8.97-9.67"/>
      <path class="cls-2" d="M52.79,91.51s-5.73,14.59-6.37,26.79c5.78-12.95,15.8-24.94,17.37-25.79.73-.39,5.57-3.86,3,3-2,5-4,8-10,13,5-2,10-2,8,4s-8,13-10,14-2.39-1.8-2-4c.45-2.56,6.45-8.56,12-11"/>
      <path class="cls-2" d="M72.79,108.51c-2.04,3.24-2.16,8.55-1,8s8.93-9.19,8.6-8.05c-.16.54-1.65,6.26-.6,9.2,3.09-.57,6.2-3.62,8.85-7.13,3.74-4.96,6.57-10.84,7.15-12.01,1-2,3-7,2-7s-4.19,4.53-5,7c-1.51,3.03-5,17-5,20s-.27,3.85.77,4.68c5.23-4.16,14.23-19.68,16.23-22.68s3.9-8.78,3.18-9-4.18,5-5.18,8-4.41,13.91-4.6,15.73-1.04,7.96.07,7.96,8.61-8.31,9.58-9.17.68.39,2.95-1.52,3.86-4.84,3-5-3.11-.15-4.64,2.32-1.41,5.61-1.36,6.68.15,2.15,1.49,2.12,11.77-7.59,11.77-7.59"/>
      <path class="cls-2" d="M112.87,66.73c.97-.86,1.51-.71,3.79-2.61s3.86-4.84,3-5-3.11-.15-4.64,2.32-1.41,5.61-1.36,6.68.15,2.15,1.49,2.12,11.77-7.59,11.77-7.59"/>
      <path class="cls-2" d="M126.11,103.96c-4.64-.3-5.78,3.36-4.76,9.46.84,2.76.47,6.1-.59,9.78-1.25.99-3.33,1.17-3.91.59s2.02-3.39,2.02-3.39c4.02-4.22,8.5-7.51,13.3-10.17"/>
      <path class="cls-2" d="M132.58,54.59c-4.64-.3-5.78,3.36-4.76,9.46.84,2.76.47,6.1-.59,9.78-1.25.99-3.33,1.17-3.91.59s2.02-3.39,2.02-3.39c4.02-4.22,8.5-7.51,13.3-10.17"/>
      <line class="cls-2" x1="80.75" y1="52.81" x2="98.06" y2="50.85"/>
      <line class="cls-2" x1="100.9" y1="52.81" x2="121.05" y2="51.05"/>
      <circle class="cls-4" cx="96.05" cy="57.11" r="1.05"/>
    </g>
    <circle class="cls-1" cx="87.49" cy="87.49" r="86.99"/>
    <circle class="cls-1" cx="90.17" cy="86.92" r="78"/>
  </g>
</svg>