<?xml version="1.0" encoding="UTF-8"?>
<svg id="Calque_2" data-name="Calque 2" xmlns="http://www.w3.org/2000/svg" viewBox="0 0 50 49">
  <defs>
    <style>
      .cls-1 {
        fill: none;
        stroke: #51816a;
        stroke-miterlimit: 10;
        stroke-width: 2px;
      }
    </style>
  </defs>
  <g id="ARTWORK">
    <g>
      <rect class="cls-1" x="1" y="40" width="48" height="8" rx="2" ry="2" transform="translate(50 88) rotate(180)"/>
      <path class="cls-1" d="M23,36l1.53-4.6c.31-.93.47-1.9.47-2.89v-1.4c0-4.19-2.85-7.84-6.91-8.85h0c-.72-.18-1.47-.27-2.21-.27h-4.88"/>
      <path class="cls-1" d="M10,10h3.7c2.86,0,5.71-.31,8.5-.93l.61-.13c2.79-.62,5.64-.93,8.5-.93h0c5.36,0,9.7,4.34,9.7,9.7h0c0,.86-.11,1.72-.34,2.55l-1.89,6.91c-.5,1.85-.45,3.8.16,5.62l1.07,3.21"/>
      <line class="cls-1" x1="6" y1="34" x2="6" y2="28"/>
      <circle class="cls-1" cx="31" cy="18" r="4"/>
      <line class="cls-1" x1="6" y1="32" x2="9" y2="32"/>
      <path class="cls-1" d="M6,4h0c-2.21,0-4,1.79-4,4v15c0,2.21,1.79,4,4,4h0c2.21,0,4-1.79,4-4v-15c0-2.21-1.79-4-4-4Z"/>
      <path class="cls-1" d="M40,36h-17c-2.21,0-4,1.79-4,4h25c0-2.21-1.79-4-4-4Z"/>
      <line class="cls-1" x1="6" y1="4" x2="6"/>
      <path class="cls-1" d="M41,20h0c1.28,0,2.51.51,3.41,1.41l.59.59v-10l-.59.59c-.91.91-2.13,1.41-3.41,1.41h0"/>
      <path class="cls-1" d="M47,25h0c-1.1,0-2-.9-2-2v-12c0-1.1.9-2,2-2h0c1.1,0,2,.9,2,2v12c0,1.1-.9,2-2,2Z"/>
    </g>
  </g>
</svg>