<?xml version="1.0" encoding="UTF-8"?>
<svg id="Calque_2" xmlns="http://www.w3.org/2000/svg" xmlns:xlink="http://www.w3.org/1999/xlink" viewBox="0 0 12.31 12.38">
  <defs>
    <style>
      .cls-1 {
        fill: url(#Dégradé_sans_nom_61-3);
      }

      .cls-1, .cls-2, .cls-3 {
        stroke: #000;
        stroke-miterlimit: 10;
        stroke-width: .25px;
      }

      .cls-2 {
        fill: url(#Dégradé_sans_nom_61);
      }

      .cls-3 {
        fill: url(#Dégradé_sans_nom_61-2);
      }
    </style>
    <linearGradient id="Dégradé_sans_nom_61" data-name="Dégradé sans nom 61" x1="6.16" y1="12.26" x2="6.16" y2=".12" gradientUnits="userSpaceOnUse">
      <stop offset="0" stop-color="#f7a813"/>
      <stop offset=".12" stop-color="#f08f30"/>
      <stop offset=".29" stop-color="#e87352"/>
      <stop offset=".46" stop-color="#e25c6d"/>
      <stop offset=".64" stop-color="#de4c80"/>
      <stop offset=".81" stop-color="#db438c"/>
      <stop offset="1" stop-color="#db4090"/>
    </linearGradient>
    <linearGradient id="Dégradé_sans_nom_61-2" data-name="Dégradé sans nom 61" x1="9.37" y1="3.67" x2="9.37" y2="2.22" xlink:href="#Dégradé_sans_nom_61"/>
    <linearGradient id="Dégradé_sans_nom_61-3" data-name="Dégradé sans nom 61" x1="6.16" y1="9.29" x2="6.16" y2="3.05" xlink:href="#Dégradé_sans_nom_61"/>
  </defs>
  <g id="Calque_2-2" data-name="Calque_2">
    <g>
      <path class="cls-2" d="M8.66.12H3.65C1.71.12.12,1.71.12,3.67v5.03c0,1.96,1.58,3.55,3.53,3.55h5c1.95,0,3.53-1.59,3.53-3.55V3.67c0-1.96-1.58-3.55-3.53-3.55ZM11.06,8.7c0,1.34-1.08,2.43-2.41,2.43H3.63c-1.33,0-2.41-1.09-2.41-2.43V3.65c0-1.34,1.08-2.43,2.41-2.43h5.02c1.33,0,2.41,1.09,2.41,2.43v5.05Z"/>
      <ellipse class="cls-3" cx="9.37" cy="2.94" rx=".74" ry=".72"/>
      <path class="cls-1" d="M6.16,3.05c-1.71,0-3.1,1.4-3.1,3.12s1.39,3.12,3.1,3.12,3.1-1.4,3.1-3.12-1.39-3.12-3.1-3.12ZM6.19,8.22c-1.11,0-2.01-.91-2.01-2.02s.9-2.02,2.01-2.02,2.01.91,2.01,2.02-.9,2.02-2.01,2.02Z"/>
    </g>
  </g>
</svg>