<?xml version="1.0" encoding="UTF-8"?>
<svg id="Calque_2" xmlns="http://www.w3.org/2000/svg" viewBox="0 0 24 24">
  <defs>
    <style>
      .cls-1 {
        fill: none;
      }

      .cls-2 {
        fill: #51816a;
      }
    </style>
  </defs>
  <g id="Calque_2-2" data-name="Calque_2">
    <path id="Tracé_1894" class="cls-1" d="M0,0h24v24H0V0Z"/>
    <path id="Tracé_1895" class="cls-2" d="M6.62,10.79c1.45,2.83,3.76,5.14,6.59,6.59l2.2-2.2c.27-.27.66-.36,1.02-.24,1.15.38,2.36.57,3.57.57.55,0,1,.45,1,1h0v3.49c0,.55-.45,1-1,1C10.61,21,3,13.39,3,4c0-.55.45-1,1-1h3.5c.55,0,1,.45,1,1,0,1.21.19,2.42.57,3.57.12.36.02.75-.25,1.02l-2.2,2.2Z"/>
  </g>
</svg>